inDegrees=yes
name=ik_Xsens_quaternion
DataType=double
version=3
OpenSimVersion=4.4-2022-07-23-0e9fedc
endheader
time	pelvis_tilt	pelvis_list	pelvis_rotation	pelvis_tx	pelvis_ty	pelvis_tz	hip_flexion_r	hip_adduction_r	hip_rotation_r	knee_angle_r	knee_angle_r_beta	ankle_angle_r	subtalar_angle_r	mtp_angle_r	hip_flexion_l	hip_adduction_l	hip_rotation_l	knee_angle_l	knee_angle_l_beta	ankle_angle_l	subtalar_angle_l	mtp_angle_l	lumbar_extension	lumbar_bending	lumbar_rotation	arm_flex_r	arm_add_r	arm_rot_r	elbow_flex_r	pro_sup_r	wrist_flex_r	wrist_dev_r	arm_flex_l	arm_add_l	arm_rot_l	elbow_flex_l	pro_sup_l	wrist_flex_l	wrist_dev_l
0	0	0	0	0	0.93	0	18.82100067599547	-14.52799971939466	12.45299928862497	17.54700042428668	0.3062529312526446	7.216999994141599	0	0	119.9881037318253	-49.99835734149329	30.61259382394227	15.84318230549393	0.2765156952245751	0	0	0	0	0	0	0	0	0	0	2.415907257512204e-44	0	0	61.72209295994291	-89.95356903964047	-28.27970217770836	0.3518738365218888	23.79588799670494	0	0
0.01666666666666667	0	0	0	0	0.93	0	18.82100067599547	-14.52799971939466	12.45299928862497	17.54700042428668	0.3062529312526446	7.216999994141599	0	0	119.988086966236	-49.99835352181719	30.57832977032705	15.65737198753533	0.2732726933920201	0	0	0	0	0	0	0	0	0	0	0	0	0	61.6807255000429	-89.88330120387481	-28.32528151992773	0.3416402342575569	23.89588003462903	0	0
0.03333333333333333	0	0	0	0	0.93	0	18.82100067599547	-14.52799971939466	12.45299928862497	17.54700042428668	0.3062529312526446	7.216999994141599	0	0	119.9880723046506	-49.99834971988021	30.54122783447727	15.46116031184606	0.2698481536203871	0	0	0	0	0	0	0	0	0	0	7.619332412525596e-41	0	0	61.69108239272482	-89.86649290374959	-28.38305539629781	0.3572213544384407	23.96491625565582	0	0
0.05	0	0	0	0	0.93	0	18.82100067599547	-14.52799971939466	12.45299928862497	17.54700042428668	0.3062529312526446	7.216999994141599	0	0	119.9880672217153	-49.99834680939905	30.5202692729242	15.25808253212699	0.2663037777266495	0	0	0	0	0	0	0	0	0	0	0	0	0	61.69151022100553	-89.90425583430547	-28.43309367629406	0.3869525756825287	24.03627446695129	0	0
0.06666666666666667	0	0	0	0	0.93	0	18.82100067599547	-14.52799971939466	12.45299928862497	17.54700042428668	0.3062529312526446	7.216999994141599	0	0	119.9881011071401	-49.99834481643012	30.54526978385789	15.10118907467305	0.2635654703192406	0	0	0	0	0	0	0	0	0	0	0	0	0	61.69012003719649	-89.98197206090667	-28.47843858966057	0.3992417053539009	24.10454846436043	0	0
0.08333333333333333	0	0	0	0	0.93	0	18.82100067599547	-14.52799971939466	12.45299928862497	17.54700042428668	0.3062529312526446	7.216999994141599	0	0	119.988169752267	-49.99834393104745	30.58630743477012	14.98045224533008	0.2614582151187871	0	0	0	0	0	0	0	0	0	0	7.246169476167145e-39	0	0	61.67161862664922	-90.08261833425979	-28.5166761995258	0.39552822996827	24.18257630700848	0	0
0.1	0	0	0	0	0.93	0	18.82100067599547	-14.52799971939466	12.45299928862497	17.54700042428668	0.3062529312526446	7.216999994141599	0	0	119.9882856610965	-49.99834307029342	30.6853642125285	14.88477092973488	0.2597882611290112	0	0	0	0	0	0	0	0	0	2.620793709501961e-39	0	0	0	61.63780593122373	-90.18024703392388	-28.54732688459451	0.388711387710495	24.26156572895676	0	0
0.1166666666666667	0	0	0	0	0.93	0	18.82100067599547	-14.52799971939466	12.45299928862497	17.54700042428668	0.3062529312526446	7.216999994141599	0	0	119.9884977644594	-49.9983420214357	30.84516045499062	14.80904621750743	0.2584666155755169	0	0	0	0	0	0	0	0	0	0	8.745975585220728e-39	0	0	61.59291229041443	-90.28133363335515	-28.56945220834957	0.3913992295014333	24.33948827068105	0	0
0.1333333333333333	0	0	0	0	0.93	0	18.82100067599547	-14.52799971939466	12.45299928862497	17.54700042428668	0.3062529312526446	7.216999994141599	0	0	119.9887533453556	-49.99834193885735	30.97070230806113	14.74532900176739	0.2573545403706497	0	0	0	0	0	0	0	0	0	1.791679475430218e-39	1.791679632243671e-39	0	0	61.5406960959213	-90.39638196486077	-28.58507972882483	0.3860338791807782	24.41459735194955	0	0
0.15	0	0	0	0	0.93	0	18.82100067599547	-14.52799971939466	12.45299928862497	17.54700042428668	0.3062529312526446	7.216999994141599	0	0	119.9889615890107	-49.99834248543602	31.08682744903935	14.70192727483056	0.2565970373345505	0	0	0	0	0	0	0	0	0	0	0	0	0	61.4917789190558	-90.49640492073472	-28.59965243114468	0.3850686301802208	24.49287850275769	0	0
0.1666666666666667	0	0	0	0	0.93	0	18.82100067599547	-14.52799971939466	12.45299928862497	17.54700042428668	0.3062529312526446	7.216999994141599	0	0	119.989111676147	-49.99834296314645	31.19867740553137	14.68392526854702	0.256282843052938	0	0	0	0	0	0	0	0	0	1.995996897953684e-40	0	0	0	61.44610456241411	-90.59669450243751	-28.61117952590999	0.3746942992669714	24.57041784328257	0	0
0.1833333333333333	0	0	0	0	0.93	0	18.82100067599547	-14.52799971939466	12.45299928862497	17.54700042428668	0.3062529312526446	7.216999994141599	0	0	119.9892241197701	-49.99834239026372	31.29062375978943	14.69947789083613	0.256554287519202	0	0	0	0	0	0	0	0	0	1.030103327812253e-39	0	0	0	61.4112515128503	-90.70070480386593	-28.62102882179593	0.3451325790823306	24.65019399928231	0	0
0.2	0	0	0	0	0.93	0	18.82100067599547	-14.52799971939466	12.45299928862497	17.54700042428668	0.3062529312526446	7.216999994141599	0	0	119.9893228503144	-49.99834057476951	31.36406797259039	14.7123985662286	0.2567797958463822	0	0	0	0	0	0	0	0	0	0	0	0	0	61.40263142112346	-90.7883264359812	-28.63628103870071	0.3185683243039732	24.72203136859113	0	0
0.2166666666666667	0	0	0	0	0.93	0	18.82100067599547	-14.52799971939466	12.45299928862497	17.54700042428668	0.3062529312526446	7.216999994141599	0	0	119.9894370019147	-49.99833795032094	31.42120260606761	14.75624663477252	0.2575450890131136	0	0	0	0	0	0	0	0	0	2.352201792303972e-45	0	0	0	61.41712954636823	-90.87131372554958	-28.65176827233785	0.2996968377749357	24.78490095301051	0	0
0.2333333333333333	0	0	0	0	0.93	0	18.82100067599547	-14.52799971939466	12.45299928862497	17.54700042428668	0.3062529312526446	7.216999994141599	0	0	119.9895321509197	-49.99833528832304	31.46792081557381	14.8140120580636	0.2585532858433512	0	0	0	0	0	0	0	0	0	0	1.052357267868557e-38	0	0	61.41902864791273	-90.95021239823588	-28.66141580945738	0.2941508806630788	24.85639891782061	0	0
0.25	0	0	0	0	0.93	0	18.82100067599547	-14.52799971939466	12.45299928862497	17.54700042428668	0.3062529312526446	7.216999994141599	0	0	119.9896156560245	-49.9983330642672	31.50406463627414	14.86779630773133	0.2594919980857677	0	0	0	0	0	0	0	0	0	0	0	0	0	61.39650766669102	-91.0292991055845	-28.66255710344649	0.2950675260464538	24.93654337641116	0	0
